<?xml version="1.0" standalone="no"?><!DOCTYPE svg PUBLIC "-//W3C//DTD SVG 1.1//EN" "http://www.w3.org/Graphics/SVG/1.1/DTD/svg11.dtd"><svg t="1713541997959" class="icon" viewBox="0 0 1024 1024" version="1.1" xmlns="http://www.w3.org/2000/svg" p-id="5348" data-spm-anchor-id="a313x.search_index.0.i48.1a543a81merQQM" width="256" height="256" xmlns:xlink="http://www.w3.org/1999/xlink"><path d="M512 512m-422.1 0a422.1 422.1 0 1 0 844.2 0 422.1 422.1 0 1 0-844.2 0Z" fill="#5F9EA0" p-id="5349" data-spm-anchor-id="a313x.search_index.0.i42.1a543a81merQQM" class="selected"></path><path d="M512 960C265 960 64 759 64 512S265 64 512 64s448 201 448 448-201 448-448 448z m0-870.1C279.25 89.9 89.9 279.25 89.9 512S279.25 934.1 512 934.1 934.1 744.75 934.1 512 744.75 89.9 512 89.9z" fill="#e6e6e6" p-id="5350"></path><path d="M542.44 472.3c11.26 7.87 21 17.78 29.72 28.47a174.93 174.93 0 0 1 22.25 34.88c6 12.45 10.92 25.5 13.67 39.05a176.1 176.1 0 0 1 3.35 20.39 91.93 91.93 0 0 1 0.57 10.29c0.12 3.43 0.17 6.86 0.17 10.27-2.05-13.56-4-27-8-40a216.38 216.38 0 0 0-14.46-37.76A228.12 228.12 0 0 0 569 503.17c-3.92-5.52-8.14-10.83-12.57-16a189.25 189.25 0 0 0-13.99-14.87zM560 403.86c5.95 1.71 10.57 5.56 14.2 10.31a30.69 30.69 0 0 1 6.08 17.52 31.85 31.85 0 0 1-0.32 5c-0.38 1.63-0.73 3.27-1.2 4.85-1.37 3-2.77 6-5 8.31a25 25 0 0 1-7.2 5.72 27.37 27.37 0 0 1-8.59 2.57c0.88-3.12 2.22-5.37 3.07-7.83s1.85-4.52 2.23-6.71a34.17 34.17 0 0 0 1.5-11.6 70.7 70.7 0 0 0-1.54-12.55zM627.68 425.8l-0.19-0.36c0-0.06-0.07-0.12-0.1-0.13s0.38 0.09 0.33 0.09 0.12-0.1 0.11 0l0.09 0.75 0.18 1.61c0.07 1.07 0.1 2.15 0.11 3.24a44.6 44.6 0 0 1-0.61 6.52 43.2 43.2 0 0 1-4.39 12.57 47.47 47.47 0 0 1-19.14 19.13 56.74 56.74 0 0 1-50.63 1.36c8.24-2.67 15.92-4.49 23.15-6.78a109.77 109.77 0 0 0 20-8.19A70.29 70.29 0 0 0 613.28 443a87.28 87.28 0 0 0 7.33-8.47c1.24-1.52 2.32-3.15 3.5-4.82l1.73-2.57 0.91-1.32 0.49-0.71a0.65 0.65 0 0 1 0.2-0.2s0.33-0.06 0.39 0.12 0 0.07 0 0.11a0.7 0.7 0 0 1 0 0.24zM447.52 513c8.71 0.25 16.71 0.77 24.45 0.79s15-0.38 21.58-2a39.75 39.75 0 0 0 9.16-3.42 40.35 40.35 0 0 0 8.22-5.92c5.72-5 11.37-10.73 18-16.56a51.67 51.67 0 0 1-8.38 24.65 36.12 36.12 0 0 1-9.93 10.46 40 40 0 0 1-13.41 5.87 53 53 0 0 1-27.12-1.16c-8.39-2.63-16.22-6.64-22.57-12.71zM477.54 438.74c3.35 6.11 5.79 11.78 8.39 16.9s5.38 9.55 7.91 11.31a8.32 8.32 0 0 0 4 1.69 20 20 0 0 0 6.64-0.34c5.25-0.9 11.1-3.13 17.92-4.66a33.72 33.72 0 0 1-13.13 15.9 24.22 24.22 0 0 1-11.43 3.84 20.2 20.2 0 0 1-13.37-4 25 25 0 0 1-7.66-10 34.73 34.73 0 0 1-2.67-10.56 37.92 37.92 0 0 1 3.4-20.08zM496.24 398.59a82.9 82.9 0 0 1 16.87 5.93 86.75 86.75 0 0 1 15.52 9.48c4.87 3.85 9.62 8.36 13 15.23a20.56 20.56 0 0 1-4.19 24.23l-0.87 0.88-0.74 0.36c-10.15 4.89-19 0.36-24.36-4.48-5.38-5.07-8.12-10.92-10.4-16.63a56.45 56.45 0 0 1-2.61-8.69 75.54 75.54 0 0 1-1.62-8.73c-0.26-3-0.76-5.54-0.79-9.27-0.05-3.51 0.35-6.29 0.19-8.31z m0 0a37 37 0 0 0 4.09 8.25c1.12 1.82 2.46 4.67 3.76 7.08s2.46 5 3.83 7.35 2.67 4.69 4.06 6.91c2.81 4.31 5.84 8.52 9.1 10.9 1.63 1 3.13 2.06 4.42 2.14a7 7 0 0 0 1.76 0.11 6.15 6.15 0 0 0 0.75-0.13c0.11 0 0.67-0.28 0.06 0l-1.62 1.24a6.91 6.91 0 0 0 2-3.29 7.22 7.22 0 0 0-0.43-4.25c-1.29-3.72-4.36-8-7.81-12.05s-7.36-8.14-11.47-12.06z" fill="#FFFFFF" p-id="5351"></path><path d="M414.2 130.1c29.52 12.12 56.79 29.35 82.63 48.31a489.13 489.13 0 0 1 168.53 231.54q2.18 5.68 3.77 11.54l3.42 11.65 3.45 11.65c1 3.91 1.85 7.88 2.78 11.81 1.74 7.9 3.8 15.73 5.27 23.68l4 23.91c4.07 32 6.73 64.27 5.28 96.42a670.89 670.89 0 0 1-32.71 188.44c11.21-62.64 17.89-125.71 16.54-188.48-1.13-62.69-11-125-31.3-183.9-9.63-29.62-22.88-57.93-37.92-85.17s-32.78-53-52.33-77.44a565.49 565.49 0 0 0-65.08-67.8c-23.7-20.78-48.94-39.99-76.33-56.16z" fill="#FFFFFF" p-id="5352"></path><path d="M757.47 392.87a929.53 929.53 0 0 0-65.17 107.7c-19 37.13-35.5 75.4-47.39 115a467 467 0 0 0-14.83 60.13c-2.13 10.12-3.38 20.36-4.83 30.59l-1.43 15.42c-0.65 5.14-0.89 10.3-1.12 15.46-2.43 41.37 1.93 83 10.79 124.47a320.53 320.53 0 0 1-27-124.71c-1.17-43.14 6.14-86.29 18.59-127.43A543.07 543.07 0 0 1 648 549.33a554.11 554.11 0 0 1 30.22-56.64c22.36-36.39 48.29-70.69 79.25-99.82z" fill="#FFFFFF" p-id="5353"></path><path d="M618 497.48A443.61 443.61 0 0 0 588.23 591c-0.86 4-1.57 7.93-2.1 11.94s-1.41 7.94-1.92 11.94c-0.88 8-2 16-2.3 24-1.31 16-0.87 32 0 48 2.49 32.11 8.4 63.71 18.91 94.38 5.22 15.35 11.46 30.51 17.36 46.22a189.43 189.43 0 0 1 7.3 24.34c1.58 8.43 2.05 17.14 0.31 25.34a77 77 0 0 0-5.81-23.68 227.36 227.36 0 0 0-11.06-21.8c-7.92-14.39-16.35-29-23.14-44.52-7.11-15.42-12.27-31.77-16.58-48.29s-6.33-33.57-7.94-50.51a288 288 0 0 1 11.39-101.26c2.36-8.15 5.13-16.16 8.15-24.06 3.27-7.81 6.55-15.58 10.3-23.13 7.58-14.99 16.13-29.58 26.9-42.43z" fill="#FFFFFF" p-id="5354"></path><path d="M323.54 699c28.78-8.28 59.15-10.51 89.25-9.08a294.92 294.92 0 0 1 89 17.85c28.63 10.55 55.71 26.16 78.41 46.61l4.29 3.78 4.06 4c2.68 2.71 5.45 5.31 8 8.14 4.88 5.86 10 11.39 14.37 17.62a205.08 205.08 0 0 1 22.58 38.89c-19.46-22.64-40-43.27-63.41-59.87a318.37 318.37 0 0 0-75.49-39.79c-26.73-10.08-54.83-16.63-83.42-21.25a620.09 620.09 0 0 0-87.64-6.9zM773 613.71c-8.87 23.41-18.69 46-28.49 68.56l-29.86 67.19-29.43 67.18-28.45 68.28c1.26-25 6.44-49.67 13.1-73.74A574.26 574.26 0 0 1 695.7 741a653.28 653.28 0 0 1 34.35-66.2c12.86-21.25 26.6-42.05 42.95-61.09zM432 807.43c15.88-2.2 31.76-1.13 47.37 1.38a192.06 192.06 0 0 1 45.7 13.58c14.64 6.58 28.77 15.26 40.45 27 11.66 11.61 20.6 27.18 21.48 43.28a115.48 115.48 0 0 0-31.93-30.76c-12-8.06-25-14.53-38.41-20.6s-27.34-11.45-41.49-16.82-28.49-10.77-43.17-17.06z" fill="#FFFFFF" p-id="5355"></path></svg>