<?xml version="1.0" standalone="no"?><!DOCTYPE svg PUBLIC "-//W3C//DTD SVG 1.1//EN" "http://www.w3.org/Graphics/SVG/1.1/DTD/svg11.dtd"><svg t="1713590615037" class="icon" viewBox="0 0 1024 1024" version="1.1" xmlns="http://www.w3.org/2000/svg" p-id="16166" xmlns:xlink="http://www.w3.org/1999/xlink" width="256" height="256"><path d="M111 320.1h104.6c25.6 0 46.4-20.7 46.4-46.4 0-25.6-20.8-46.4-46.4-46.4H111c-25.6 0-46.4 20.7-46.4 46.4 0.1 25.6 20.8 46.4 46.4 46.4zM111 559h104.6c25.6 0 46.4-20.8 46.4-46.4 0-25.6-20.8-46.4-46.4-46.4H111c-25.6 0-46.4 20.8-46.4 46.4 0.1 25.6 20.8 46.4 46.4 46.4zM262 751.4c0-25.6-20.8-46.4-46.4-46.4H111c-25.6 0-46.4 20.8-46.4 46.4 0 25.6 20.7 46.4 46.4 46.4h104.6c25.7 0 46.4-20.8 46.4-46.4zM98.2 337.9h61.7v112.5H98.2zM98.2 576.1h61.7v112.5H98.2z" fill="#5F9EA0" p-id="16167" data-spm-anchor-id="a313x.search_index.0.i65.1c683a810dQrH2" class=""></path><path d="M855.6 68.8H315.1c-57.2 0-103.7 46.5-103.7 103.7v44.9h53.8c32.4 0 58.8 26.3 58.8 58.8 0 32.4-26.4 58.8-58.8 58.8h-53.8v118.4h53.8c32.4 0 58.8 26.4 58.8 58.8S297.6 571 265.2 571h-53.8v118.4h53.8c32.4 0 58.8 26.4 58.8 58.8S297.6 807 265.2 807h-53.8v44.9c0 57.2 46.5 103.7 103.7 103.7h540.6c57.2 0 103.7-46.5 103.7-103.7V172.5c-0.1-57.2-46.6-103.7-103.8-103.7zM754 794.4H428.9v-21.9H754v21.9z m0-53.1H428.9v-21.9H754v21.9z m0-53.2H428.9v-21.9H754v21.9z m3.5-392c-5.2 20.2-17.4 41.8-34.5 60.8-23.4 26.1-52 43.2-76.7 45.8-2.3 0.2-4.5 0.3-6.6 0.3-0.4 0-0.8-0.1-1.2-0.1 23.6 29.4 56.2 89 29.9 174.9h-28.5c32-92.4-13.4-150-31.4-168.2-1.2 2.6-2.6 5.1-4.3 7.4-10.3 13.8-29.6 23.2-55.2 25.9-5.1 0.6-10.3 0.8-15.6 0.8-10.9 0-22.3-1.1-33.8-3.3-25-4.9-47.8-14.8-64.1-27.8-19.2-15.3-27.9-33.6-24.3-51.5 4.5-22.8 27.8-38.7 62.6-42.4 15.3-1.6 32.5-0.8 49.2 2.6 25.1 4.9 47.9 14.7 64.2 27.8 3 2.4 5.7 5 8.2 7.5 0-6.3 0.8-12.9 2.6-20 5.2-20.2 17.4-41.7 34.5-60.8 23.4-26.1 52.1-43.3 76.7-45.9 14.4-1.5 27.3 2 36.6 10.4 13.7 12.2 17.8 31.9 11.7 55.8z" fill="#5F9EA0" p-id="16168" data-spm-anchor-id="a313x.search_index.0.i64.1c683a810dQrH2" class=""></path></svg>