<?xml version="1.0" standalone="no"?><!DOCTYPE svg PUBLIC "-//W3C//DTD SVG 1.1//EN" "http://www.w3.org/Graphics/SVG/1.1/DTD/svg11.dtd"><svg t="1782652571706" class="icon" viewBox="0 0 1024 1024" version="1.1" xmlns="http://www.w3.org/2000/svg" p-id="8402" xmlns:xlink="http://www.w3.org/1999/xlink" width="200" height="200"><path d="M474.8288 102.4c36.90496 0 66.9696 29.2864 68.23936 65.87392l0.04096 2.39616v275.82464a68.27008 68.27008 0 0 1-28.16 55.2448l-2.2528 1.55648L409.6 572.03712l0.01024 76.6976c50.6368 34.7648 84.15232 92.65152 85.2992 158.44352l0.03072 3.4816c0 3.84-0.1024 7.64928-0.32768 11.42784l-0.4096 5.65248h122.32704a153.6 153.6 0 0 1 61.88032-99.18464V622.91968l-38.4 0.01024a68.27008 68.27008 0 0 1-68.22912-65.86368l-0.04096-2.39616v-85.34016c0-36.89472 29.2864-66.95936 65.87392-68.21888l2.39616-0.04096h256c36.90496 0 66.9696 29.27616 68.22912 65.86368l0.04096 2.39616v85.34016c0 36.89472-29.2864 66.95936-65.87392 68.21888l-2.39616 0.04096h-38.4l0.01024 105.63584a153.64096 153.64096 0 0 1 61.26592 95.82592l0.60416 3.33824h40.51968l4.15744 0.33792a25.6 25.6 0 0 1-2.47808 50.81088l-1.67936 0.0512h-40.51968c-12.1856 72.6528-75.3664 128-151.48032 128-74.93632 0-137.33888-53.6576-150.87616-124.65152l-0.60416-3.33824H482.73408c-27.72992 74.73152-99.67616 128-184.064 128-83.07712 0-154.09152-51.6096-182.74304-124.5184l-1.3312-3.4816H64l-4.15744-0.33792a25.6 25.6 0 0 1 2.47808-50.81088l1.67936-0.06144h39.12704A198.83008 198.83008 0 0 1 102.4 810.68032c0-67.2256 33.792-126.5664 85.32992-161.93536v-69.24288l-96.82944-77.34272a68.27008 68.27008 0 0 1-25.6-50.51392l-0.06144-2.82624V170.67008c0-36.90496 29.27616-66.9696 65.87392-68.22912l2.39616-0.04096H474.8288zM768 750.92992c-56.55552 0-102.4 45.84448-102.4 102.4s45.84448 102.4 102.4 102.4 102.4-45.84448 102.4-102.4-45.84448-102.4-102.4-102.4zM298.67008 665.6C218.55232 665.6 153.6 730.55232 153.6 810.67008s64.95232 145.05984 145.07008 145.05984 145.05984-64.94208 145.05984-145.05984C443.72992 730.55232 378.78784 665.6 298.67008 665.6zM768 785.07008A68.27008 68.27008 0 1 1 768 921.6a68.27008 68.27008 0 0 1 0-136.52992zM298.67008 742.4a68.27008 68.27008 0 1 1 0 136.52992 68.27008 68.27008 0 0 1 0-136.52992zM768 836.27008A17.07008 17.07008 0 1 0 768 870.4a17.07008 17.07008 0 0 0 0-34.12992zM298.67008 793.6a17.07008 17.07008 0 1 0 0 34.12992 17.07008 17.07008 0 0 0 0-34.12992zM806.4 622.91968h-76.8v81.65376a153.66144 153.66144 0 0 1 34.89792-4.80256l3.50208-0.04096c13.2608 0 26.13248 1.6896 38.41024 4.84352l-0.01024-81.65376zM358.4 580.27008H238.92992v43.38688c18.8416-6.01088 38.912-9.25696 59.74016-9.25696 20.81792 0 40.88832 3.24608 59.71968 9.25696L358.4 580.27008z m537.6-128h-256c-8.92928 0-16.26112 6.8608-16.9984 15.59552l-0.07168 1.46432v85.34016c0 8.92928 6.8608 16.25088 15.59552 16.9984l1.47456 0.06144h256c8.92928 0 16.26112-6.8608 16.9984-15.59552l0.07168-1.46432v-85.34016c0-9.4208-7.64928-17.05984-17.07008-17.05984zM474.8288 153.6H133.51936c-8.92928 0-16.26112 6.8608-17.00864 15.59552l-0.06144 1.47456v278.13888c0 4.608 1.86368 9.00096 5.12 12.1856l1.29024 1.14688 83.78368 66.92864h175.06304l102.6048-68.37248c3.328-2.21184 5.72416-5.48864 6.8608-9.216l0.4096-1.61792 0.33792-3.36896V170.67008c0-9.4208-7.64928-17.07008-17.07008-17.07008zM234.68032 465.07008a21.32992 21.32992 0 1 1 0 42.65984 21.32992 21.32992 0 0 1 0-42.65984z m68.25984 0a21.32992 21.32992 0 1 1 0 42.65984 21.32992 21.32992 0 0 1 0-42.65984z m68.27008 0a21.32992 21.32992 0 1 1 0 42.65984 21.32992 21.32992 0 0 1 0-42.65984z m-170.67008-51.2a21.32992 21.32992 0 1 1 0 42.65984 21.32992 21.32992 0 0 1 0-42.65984z m68.27008 0a21.32992 21.32992 0 1 1 0 42.65984 21.32992 21.32992 0 0 1 0-42.65984z m68.27008 0a21.32992 21.32992 0 1 1 0 42.65984 21.32992 21.32992 0 0 1 0-42.65984z m68.25984 0a21.32992 21.32992 0 1 1 0 42.65984 21.32992 21.32992 0 0 1 0-42.65984zM166.4 354.12992a21.32992 21.32992 0 1 1 0 42.67008 21.32992 21.32992 0 0 1 0-42.67008z m68.27008 0a21.32992 21.32992 0 1 1 0 42.67008 21.32992 21.32992 0 0 1 0-42.67008z m68.25984 0a21.32992 21.32992 0 1 1 0 42.67008 21.32992 21.32992 0 0 1 0-42.67008z m68.27008 0a21.32992 21.32992 0 1 1 0 42.67008 21.32992 21.32992 0 0 1 0-42.67008z m68.27008 0a21.32992 21.32992 0 1 1 0 42.67008 21.32992 21.32992 0 0 1 0-42.67008zM768 0c106.0352 0 192 85.9648 192 192S874.0352 384 768 384s-192-85.9648-192-192S661.9648 0 768 0z m49.59232 181.84192l-42.81344 88.41216c-7.8848 13.4144-26.53184 13.88544-35.3792 2.1504l-2.1504-3.51232-20.7872-42.11712-20.06016 30.72c-3.2768 5.0176-8.4992 8.36608-14.29504 9.34912l-3.55328 0.29696H648.9088A140.6976 140.6976 0 0 0 768 332.8c44.10368 0 83.456-20.2752 109.28128-52.0192h-12.84096a21.34016 21.34016 0 0 1-19.83488-13.45536l-1.06496-3.584-25.94816-81.89952zM768 51.2c-77.76256 0-140.8 63.03744-140.8 140.8 0 11.17184 1.30048 22.04672 3.75808 32.47104h36.0448l34.24256-52.25472c8.2944-12.65664 26.3168-12.65664 34.88768-1.16736l2.08896 3.40992 19.79392 40.02816 46.2336-102.10304c9.23648-15.72864 32.03072-13.1072 38.22592 2.87744l1.06496 3.6352 38.25664 119.18336 19.28192 0.02048a140.5952 140.5952 0 0 0 7.72096-46.10048C908.8 114.23744 845.76256 51.2 768 51.2zM512 23.48032a25.6 25.6 0 0 1 4.15744 50.87232L512 74.68032H85.32992a25.6 25.6 0 0 1-4.1472-50.86208l4.1472-0.33792H512z" fill="#5F9EA0" p-id="8403"></path></svg>